<svg width="825" height="303" viewBox="0 0 825 303" fill="none" xmlns="http://www.w3.org/2000/svg">
<path d="M0.477539 249.545V188.182L117.523 4.0908H173.205V85.909H141.387L78.3185 185.909V188.182H251.046V249.545H0.477539ZM141.955 295V230.795L143.659 204.091V4.0908H217.523V295H141.955Z" fill="#222222" fill-opacity="0.15"/>
<path d="M410.882 302.954C384.462 302.86 361.64 296.752 342.416 284.631C323.193 272.509 308.373 255.038 297.956 232.216C287.54 209.394 282.379 182.026 282.473 150.114C282.568 118.106 287.776 90.9279 298.098 68.5795C308.515 46.231 323.288 29.2328 342.416 17.5851C361.64 5.93739 384.462 0.113525 410.882 0.113525C437.303 0.113525 460.125 5.98474 479.348 17.7272C498.572 29.3749 513.392 46.373 523.809 68.7215C534.225 91.07 539.386 118.201 539.291 150.114C539.291 182.216 534.083 209.678 523.666 232.5C513.25 255.322 498.43 272.793 479.206 284.915C460.077 296.941 437.303 302.954 410.882 302.954ZM410.882 238.75C424.519 238.75 435.693 231.648 444.405 217.443C453.212 203.144 457.568 180.701 457.473 150.114C457.473 130.132 455.485 113.797 451.507 101.108C447.53 88.4184 442.038 79.0434 435.03 72.9828C428.023 66.8275 419.973 63.7499 410.882 63.7499C397.246 63.7499 386.119 70.6628 377.502 84.4885C368.884 98.3143 364.481 120.189 364.291 150.114C364.197 170.473 366.138 187.235 370.115 200.398C374.093 213.466 379.585 223.125 386.593 229.375C393.695 235.625 401.791 238.75 410.882 238.75Z" fill="#222222" fill-opacity="0.15"/>
<path d="M573.524 249.545V188.182L690.57 4.0908H746.252V85.909H714.434L651.365 185.909V188.182H824.093V249.545H573.524ZM715.002 295V230.795L716.706 204.091V4.0908H790.57V295H715.002Z" fill="#222222" fill-opacity="0.15"/>
</svg>
