<svg width="639" height="616" viewBox="0 0 639 616" fill="none" xmlns="http://www.w3.org/2000/svg">
<path d="M349.533 352.32C302.856 352.32 258.096 333.779 225.091 300.779C192.085 267.773 173.544 223.008 173.544 176.336C173.544 129.659 192.085 84.8933 225.091 51.888C258.096 18.888 302.856 0.346649 349.533 0.346649C396.211 0.346649 440.971 18.888 473.976 51.888C506.981 84.8933 525.523 129.659 525.523 176.336C525.481 222.997 506.929 267.737 473.935 300.732C440.935 333.727 396.195 352.284 349.533 352.32V352.32ZM349.533 25.8C309.585 25.8 271.279 41.6693 243.033 69.92C214.788 98.1707 198.924 136.483 198.929 176.431C198.935 216.373 214.815 254.681 243.065 282.92C271.32 311.16 309.639 327.019 349.581 327.008C389.529 326.992 427.836 311.107 456.071 282.852C484.305 254.592 500.153 216.273 500.139 176.331C500.076 136.409 484.191 98.148 455.956 69.9293C427.721 41.7107 389.451 25.8413 349.535 25.7987L349.533 25.8Z" fill="#000080"/>
<path d="M627.147 398.613C619.99 390.014 610.073 384.165 599.089 382.051C588.105 379.941 576.725 381.707 566.892 387.04L553.007 370.166H553.001C546.923 363.041 538.471 358.358 529.204 356.983C519.939 355.614 510.491 357.64 502.605 362.697L488.939 371.733L480.725 361.952C474.657 354.832 466.215 350.15 456.965 348.78C447.71 347.405 438.272 349.431 430.403 354.483L337.663 414.89L234.621 372.478H234.626C218.668 365.968 201.266 363.827 184.21 366.264C167.153 368.707 151.049 375.645 137.56 386.368L6.14773 490.899C3.28319 492.915 1.38212 496.024 0.887321 499.493C0.397734 502.956 1.35607 506.472 3.54359 509.206C5.73106 511.941 8.94985 513.649 12.4395 513.93C15.9291 514.212 19.3821 513.035 21.9759 510.686L153.388 406.155C163.383 398.186 175.331 393.035 187.987 391.238C200.643 389.435 213.549 391.055 225.367 395.925L407.553 470.592C415.017 473.941 420.204 480.93 421.247 489.045C422.288 497.165 419.043 505.238 412.668 510.368C406.293 515.497 397.71 516.946 390.007 514.196L266.731 466.113C263.559 464.655 259.929 464.566 256.689 465.874C253.455 467.181 250.898 469.759 249.622 473.009C248.346 476.259 248.466 479.889 249.95 483.051C251.434 486.207 254.158 488.613 257.476 489.707L380.377 538.166C386.065 540.369 392.117 541.509 398.221 541.525C410.81 541.504 422.909 536.65 432.024 527.962C441.138 519.28 446.571 507.432 447.201 494.858L448.618 494.113L577.05 410.259C583.93 405.983 592.539 405.587 599.779 409.217C607.024 412.847 611.863 419.978 612.555 428.051C613.248 436.123 609.701 443.977 603.18 448.79L429.207 572.14C406.852 588.057 378.462 592.921 352.076 585.353L205.21 543.989C178.188 536.37 149.142 542.417 127.407 560.192L87.8336 592.671C83.771 596.093 82.2711 601.681 84.068 606.676C85.8701 611.676 90.5888 615.025 95.8961 615.072C98.8128 615.098 101.646 614.093 103.886 612.233L143.834 580.129C159.136 567.583 179.604 563.317 198.64 568.702L345.134 609.994C378.842 619.505 415.051 613.187 443.546 592.822L617.892 469.473C628.981 461.64 636.288 449.53 638.043 436.072C639.803 422.613 635.856 409.03 627.152 398.613L627.147 398.613ZM443.693 375.692C449.287 372.14 456.646 373.255 460.939 378.301L467.209 385.77L390.231 436.467L366.111 426.535L443.693 375.692ZM440.855 468.801C435.787 459.708 427.933 452.484 418.453 448.192L516.193 383.905C521.777 380.369 529.11 381.447 533.439 386.442L545.241 400.926L440.855 468.801Z" fill="#000080"/>
<path d="M351.093 121.827C363.468 122.233 375.76 123.988 387.755 127.056C394.515 128.91 401.504 124.931 403.359 118.17C405.213 111.405 401.239 104.421 394.473 102.566C384.395 99.9882 374.134 98.1653 363.785 97.1133V79.8627C363.785 72.8523 358.103 67.17 351.092 67.17C344.082 67.17 338.4 72.8523 338.4 79.8627V97.2586C304.353 101.889 300.244 125.108 300.244 135.712C300.244 162.072 327.421 173.045 343.702 179.915L346.838 181.185L351.619 183.128C368.046 189.623 375.212 193.732 375.212 205.529C375.212 217.326 367.296 223.076 351.843 223.748H349.151C334.593 222.41 320.306 218.962 306.738 213.519C303.567 212.133 299.962 212.102 296.764 213.441C293.572 214.774 291.056 217.357 289.817 220.592C288.572 223.826 288.702 227.425 290.176 230.561C291.655 233.691 294.348 236.087 297.629 237.186C310.811 242.212 324.473 245.863 338.4 248.087V265.185C338.4 272.196 344.082 277.878 351.092 277.878C358.103 277.878 363.785 272.196 363.785 265.185V247.492C386.858 243.013 400.597 227.705 400.597 205.153C400.597 175.289 375.805 165.429 361.024 159.533L353.555 156.398C341.909 151.617 325.852 145.049 325.852 135.715C325.628 131.236 325.628 121.825 351.092 121.825L351.093 121.827Z" fill="#000080"/>
</svg>
