<svg width="100" height="100" viewBox="0 0 100 100" fill="none" xmlns="http://www.w3.org/2000/svg">
<rect width="100" height="100" rx="50" fill="white"/>
<path d="M25 50.0308C25 45.7641 25.9531 41.9692 27.8594 38.6462C29.7656 35.2821 32.4132 32.6769 35.8021 30.8308C39.2334 28.9436 43.1094 28 47.4303 28C52.7254 28 57.2581 29.3538 61.0283 32.0615C64.7984 34.7692 67.3189 38.4615 68.5897 43.1385H56.6439C55.7543 41.3333 54.4834 39.959 52.8314 39.0154C51.2216 38.0718 49.3789 37.6 47.3032 37.6C43.9567 37.6 41.2455 38.7282 39.1698 40.9846C37.0941 43.241 36.0563 46.2564 36.0563 50.0308C36.0563 53.8051 37.0941 56.8205 39.1698 59.0769C41.2455 61.3333 43.9567 62.4615 47.3032 62.4615C49.3789 62.4615 51.2216 61.9897 52.8314 61.0462C54.4834 60.1026 55.7543 58.7282 56.6439 56.9231H68.5897C67.3189 61.6 64.7984 65.2923 61.0283 68C57.2581 70.6667 52.7254 72 47.4303 72C43.1094 72 39.2334 71.0769 35.8021 69.2308C32.4132 67.3436 29.7656 64.7385 27.8594 61.4154C25.9531 58.0923 25 54.2974 25 50.0308Z" fill="#FF6553"/>
<path d="M31.4102 50.0308C31.4102 45.7641 32.3634 41.9692 34.2696 38.6462C36.1759 35.2821 38.8235 32.6769 42.2124 30.8308C45.6436 28.9436 49.5197 28 53.8405 28C59.1357 28 63.6684 29.3538 67.4385 32.0615C71.2087 34.7692 73.7292 38.4615 75 43.1385H63.0541C62.1645 41.3333 60.8937 39.959 59.2416 39.0154C57.6319 38.0718 55.7892 37.6 53.7135 37.6C50.3669 37.6 47.6558 38.7282 45.5801 40.9846C43.5044 43.241 42.4665 46.2564 42.4665 50.0308C42.4665 53.8051 43.5044 56.8205 45.5801 59.0769C47.6558 61.3333 50.3669 62.4615 53.7135 62.4615C55.7892 62.4615 57.6319 61.9897 59.2416 61.0462C60.8937 60.1026 62.1645 58.7282 63.0541 56.9231H75C73.7292 61.6 71.2087 65.2923 67.4385 68C63.6684 70.6667 59.1357 72 53.8405 72C49.5197 72 45.6436 71.0769 42.2124 69.2308C38.8235 67.3436 36.1759 64.7385 34.2696 61.4154C32.3634 58.0923 31.4102 54.2974 31.4102 50.0308Z" fill="#03CE7D"/>
</svg>
