<svg width="47" height="40" viewBox="0 0 47 40" fill="none" xmlns="http://www.w3.org/2000/svg">
<ellipse cx="23.2653" cy="20" rx="23.2653" ry="20" fill="#222222"/>
<path d="M14.9604 21.2478L13.6211 27.9698C13.4595 28.7691 13.3788 29.292 13.3788 29.5386C13.3788 29.7767 13.434 30.0318 13.5446 30.3039C12.6687 30.7376 11.8822 30.9545 11.1849 30.9545C10.7427 30.9545 10.5216 30.7759 10.5216 30.4187C10.5216 30.2317 10.6109 29.6917 10.7895 28.7988L13.8762 13.2504C13.1279 13.3524 12.4306 13.4034 11.7844 13.4034C10.4493 13.4034 9.65427 12.5233 9.39917 10.7631C10.0114 11.2648 10.8362 11.5157 11.8737 11.5157C13.1747 11.5157 14.8754 11.3881 16.9757 11.133L15.1262 20.4315C19.9987 17.1152 22.8686 13.9817 23.7359 11.031C24.9434 11.6517 25.5471 12.315 25.5471 13.0208C25.5471 13.4119 24.65 14.4111 22.8558 16.0182C21.0701 17.6254 19.2504 19.0667 17.3966 20.3422C18.9527 23.2759 20.4748 25.6611 21.9629 27.4978C23.451 29.3261 24.6033 30.2402 25.4196 30.2402C26.2869 30.2402 27.2436 29.7597 28.2895 28.7988L28.3022 29.1305C28.3022 29.7682 27.8558 30.4272 26.9629 31.1075C26.0701 31.7963 25.207 32.1407 24.3737 32.1407C22.1968 32.1407 19.059 28.5097 14.9604 21.2478Z" fill="white"/>
<path d="M25.0879 19.5004C25.0879 20.8864 25.4663 21.9749 26.2231 22.7657C26.9885 23.5565 28.0429 23.9519 29.3864 23.9519C30.5769 23.9519 31.6101 23.5948 32.4859 22.8805C33.3618 22.1662 33.7997 21.3286 33.7997 20.3677C33.7997 19.3388 32.8345 17.923 30.9043 16.1203L29.5012 14.8193C27.707 13.1526 26.8099 11.6177 26.8099 10.2147C26.8099 8.58201 27.4476 7.23847 28.7231 6.18405C29.9987 5.12963 31.6228 4.60242 33.5956 4.60242C34.6415 4.60242 35.4876 4.76398 36.1339 5.08711C36.7801 5.40174 37.1033 5.81415 37.1033 6.32436C37.1033 6.82606 36.8737 7.40854 36.4145 8.0718C35.6747 6.64323 34.4714 5.92895 32.8048 5.92895C31.7674 5.92895 30.8915 6.25208 30.1772 6.89834C29.4714 7.53609 29.1186 8.32691 29.1186 9.27078C29.1186 9.90004 29.2334 10.3805 29.4629 10.7121C29.701 11.0437 30.4281 11.7665 31.6441 12.8805L32.792 13.9392C34.8839 15.8864 35.9298 17.6339 35.9298 19.1815C35.9298 20.9842 35.2155 22.4808 33.7869 23.6713C32.3584 24.8533 30.5599 25.4443 28.3915 25.4443C26.9374 25.4443 25.7342 25.1041 24.7818 24.4238C23.8379 23.7436 23.366 22.8847 23.366 21.8473C23.366 21.1415 23.94 20.3592 25.0879 19.5004Z" fill="white"/>
</svg>
