<svg width="500" height="430" viewBox="0 0 500 430" fill="none" xmlns="http://www.w3.org/2000/svg">
<ellipse cx="250" cy="214.912" rx="250" ry="214.912" fill="#D93636"/>
<path d="M160.759 245.865L146.367 318.096C144.631 326.686 143.763 332.305 143.763 334.955C143.763 337.514 144.357 340.255 145.545 343.179C136.133 347.839 127.681 350.169 120.189 350.169C115.437 350.169 113.061 348.25 113.061 344.412C113.061 342.402 114.021 336.6 115.94 327.005L149.109 159.928C141.068 161.024 133.575 161.572 126.63 161.572C112.285 161.572 103.741 152.115 101 133.201C107.579 138.592 116.442 141.287 127.59 141.287C141.57 141.287 159.845 139.917 182.414 137.175L162.541 237.093C214.898 201.457 245.737 167.786 255.057 136.079C268.032 142.749 274.52 149.876 274.52 157.461C274.52 161.664 264.88 172.4 245.6 189.67C226.411 206.94 206.857 222.428 186.937 236.134C203.659 267.658 220.015 293.288 236.005 313.025C251.996 332.671 264.377 342.493 273.149 342.493C282.469 342.493 292.749 337.331 303.988 327.005L304.125 330.569C304.125 337.422 299.328 344.504 289.734 351.814C280.139 359.215 270.865 362.916 261.91 362.916C238.518 362.916 204.801 323.899 160.759 245.865Z" fill="white"/>
<path d="M269.586 227.088C269.586 241.982 273.652 253.678 281.784 262.175C290.008 270.673 301.338 274.922 315.775 274.922C328.568 274.922 339.67 271.084 349.081 263.409C358.493 255.734 363.198 246.733 363.198 236.408C363.198 225.352 352.827 210.138 332.086 190.766L317.009 176.786C297.729 158.877 288.089 142.384 288.089 127.307C288.089 109.763 294.942 95.326 308.648 83.9956C322.354 72.6652 339.807 67 361.005 67C372.245 67 381.336 68.7361 388.281 72.2083C395.225 75.5892 398.697 80.0208 398.697 85.5033C398.697 90.8944 396.23 97.1535 391.296 104.281C383.346 88.9298 370.417 81.2544 352.508 81.2544C341.36 81.2544 331.948 84.7266 324.273 91.6711C316.689 98.5241 312.897 107.022 312.897 117.164C312.897 123.926 314.13 129.089 316.598 132.652C319.156 136.216 326.969 143.983 340.035 155.953L352.371 167.329C374.849 188.254 386.088 207.031 386.088 223.661C386.088 243.033 378.412 259.114 363.061 271.907C347.711 284.608 328.385 290.958 305.084 290.958C289.459 290.958 276.53 287.303 266.296 279.993C256.154 272.683 251.082 263.455 251.082 252.307C251.082 244.723 257.25 236.317 269.586 227.088Z" fill="white"/>
</svg>
